HIERARCHY
ROOT hip
{
	OFFSET 0.000000 -102.168968 0.000000
	CHANNELS 6 Xposition Yposition Zposition Zrotation Xrotation Yrotation
	JOINT abdomen
	{
		OFFSET 0.000000 6.096001 0.000000
		CHANNELS 3 Zrotation Xrotation Yrotation
		JOINT chest
		{
			OFFSET 0.000000 15.118080 -1.219200
			CHANNELS 3 Zrotation Xrotation Yrotation
			JOINT neck
			{
				OFFSET 0.000000 18.287994 -0.487680
				CHANNELS 3 Zrotation Xrotation Yrotation
				JOINT head
				{
					OFFSET 0.000000 5.608322 0.000000
					CHANNELS 3 Zrotation Xrotation Yrotation
					End Site
					{
						OFFSET 11.948160 -6.339828 -0.975360
					}
				}
			}
			JOINT lCollar
			{
				OFFSET 6.096000 11.948166 -1.463040
				CHANNELS 3 Zrotation Xrotation Yrotation
				JOINT lShldr
				{
					OFFSET 5.852160 0.000000 0.000000
					CHANNELS 3 Zrotation Xrotation Yrotation
					JOINT lForeArm
					{
						OFFSET 18.044161 0.000000 0.000000
						CHANNELS 3 Zrotation Xrotation Yrotation
						JOINT lHand
						{
							OFFSET 15.118080 0.000000 0.000000
							CHANNELS 3 Zrotation Xrotation Yrotation
							End Site
							{
								OFFSET -11.948160 -6.339828 -0.975360
							}
						}
					}
				}
			}
			JOINT rCollar
			{
				OFFSET -6.339839 11.948166 -1.463040
				CHANNELS 3 Zrotation Xrotation Yrotation
				JOINT rShldr
				{
					OFFSET -5.608321 0.000000 0.000000
					CHANNELS 3 Zrotation Xrotation Yrotation
					JOINT rForeArm
					{
						OFFSET -18.287998 0.000000 0.000000
						CHANNELS 3 Zrotation Xrotation Yrotation
						JOINT rHand
						{
							OFFSET -14.874243 0.000000 0.000000
							CHANNELS 3 Zrotation Xrotation Yrotation
							End Site
							{
								OFFSET 5.852160 -33.649918 2.438400
							}
						}
					}
				}
			}
		}
	}
	JOINT lThigh
	{
		OFFSET 9.509760 -2.926079 2.438400
		CHANNELS 3 Zrotation Xrotation Yrotation
		JOINT lShin
		{
			OFFSET -3.657600 -35.844475 0.000000
			CHANNELS 3 Zrotation Xrotation Yrotation
			JOINT lFoot
			{
				OFFSET 0.000000 -34.381443 -2.194560
				CHANNELS 3 Zrotation Xrotation Yrotation
				End Site
				{
					OFFSET -5.852160 -33.649918 2.438400
				}
			}
		}
	}
	JOINT rThigh
	{
		OFFSET -9.509760 -2.926079 2.438400
		CHANNELS 3 Zrotation Xrotation Yrotation
		JOINT rShin
		{
			OFFSET 3.657600 -35.844475 0.000000
			CHANNELS 3 Zrotation Xrotation Yrotation
			JOINT rFoot
			{
				OFFSET 0.000000 -34.381443 -2.194560
				CHANNELS 3 Zrotation Xrotation Yrotation
				End Site
				{
					OFFSET 0.000000 -4.389120 8.290560
				}
			}
		}
	}
}
MOTION
Frames:	16
Frame Time:	0.05
0.485709 88.106079 4.170166 0.000000 0.000000 6.802994 3.930337 7.717866 -0.880332 1.948723 6.233219 -3.383257 0.000000 0.000000 0.000000 0.000000 0.000000 0.000000 -17.050819 13.767784 -28.619812 5.032503 2.353975 -15.068669 -20.233448 0.582948 -82.345169 -6.999999 0.000000 0.000000 26.387768 14.820211 26.609882 20.605604 6.932578 25.941944 5.235034 2.851590 61.480331 6.999999 -40.018116 -0.000000 5.899373 -11.635969 1.508036 -2.369795 27.197195 1.001180 5.480283 -14.059009 0.242448 -5.993333 -11.533527 -1.764976 3.375249 27.363714 -1.447668 -5.771553 -14.170755 0.619660 
0.564761 87.405212 4.432046 0.000000 0.000000 6.588791 4.429903 10.176813 -0.957123 2.853380 7.403813 -1.613914 0.000000 0.000000 0.000000 0.000000 0.000000 0.000000 -17.258465 13.872469 -28.077408 4.406059 2.898421 -13.692307 -20.221220 0.989978 -83.125099 -6.176562 -0.564710 0.655806 26.437988 14.700521 26.818747 17.589270 6.634214 28.020390 4.910247 1.388014 54.249866 6.555359 -36.327477 -0.557319 5.981235 -12.475408 1.651343 -2.512774 30.110626 1.183395 5.548424 -16.184080 -0.052976 -6.165274 -12.230178 -1.872873 3.323441 30.147495 -1.557242 -5.555134 -16.208445 0.376130 
0.636795 86.151512 4.670261 0.000000 0.000000 6.407801 5.312125 14.278031 -1.182520 4.408215 9.388156 3.244133 0.000000 0.000000 0.000000 0.000000 0.000000 0.000000 -17.812859 14.134742 -26.628363 2.624175 4.394497 -10.030745 -20.155209 2.036712 -85.128799 -3.905988 -2.076425 2.414834 26.149454 13.475965 26.921917 11.819387 5.648048 30.489136 3.237167 -1.307908 41.108135 5.573578 -31.304731 -1.933950 6.138383 -14.093924 1.935583 -2.814639 35.283497 1.557709 5.711504 -19.929214 -1.235511 -6.450432 -13.352492 -2.054512 3.278865 34.985664 -1.755680 -5.215313 -19.774395 -0.683366 
0.700265 84.718979 4.879586 0.000000 0.000000 6.267610 6.391278 18.908743 -1.600505 6.213718 11.637190 9.635872 0.000000 0.000000 0.000000 0.000000 0.000000 0.000000 -18.617859 14.471332 -24.540932 -0.242254 6.618058 -4.772179 -19.985350 3.458037 -87.855125 -0.454032 -4.253485 4.971378 25.701679 11.785287 26.965527 5.103285 4.368480 33.115364 0.162125 -3.347075 26.143042 4.519915 -25.410036 -3.758468 6.327143 -15.973660 2.277954 -3.236856 41.075191 2.069310 5.937555 -24.111252 -2.887455 -6.762617 -14.547928 -2.260250 3.271551 40.349762 -1.980966 -4.859699 -23.759089 -2.170398 
0.753626 83.481606 5.054803 0.000000 0.000000 6.175802 7.432496 22.968218 -2.127359 7.850678 13.614070 16.117422 0.000000 0.000000 0.000000 0.000000 0.000000 0.000000 -19.567419 14.806242 -22.083307 -4.087270 9.280558 1.420927 -19.696108 4.986170 -90.804634 3.891586 -6.800604 8.031084 25.270975 10.267920 26.983900 -0.824765 3.158392 35.664196 -2.985601 -3.913121 13.655678 3.708794 -19.122591 -5.779741 6.495587 -17.597794 2.584781 -3.677608 45.847374 2.590417 6.162145 -27.545813 -4.617168 -7.009651 -15.465670 -2.426768 3.310851 44.710274 -2.182636 -4.589176 -27.032701 -3.749499 
0.795331 82.813362 5.190688 0.000000 0.000000 6.139966 8.108078 25.376593 -2.519501 8.865296 14.805778 21.363079 0.000000 0.000000 0.000000 0.000000 0.000000 0.000000 -20.532011 15.084952 -19.521231 -8.638423 12.043034 7.896657 -19.334993 6.359486 -93.472336 8.761720 -9.417871 11.302465 25.036041 9.560832 26.999025 -4.307170 2.333802 37.888489 -4.503688 -3.873370 8.024987 3.289932 -12.935781 -7.832955 6.582068 -18.450676 2.750274 -3.917136 47.965843 2.866004 6.284138 -29.046612 -6.068192 -7.093972 -15.756410 -2.479662 3.377986 46.537170 -2.303154 -4.506802 -28.441330 -5.130635 
0.595571 83.985580 4.509374 0.000000 0.000000 7.344957 7.331600 22.400820 -2.038183 7.764358 13.511454 24.841391 0.000000 0.000000 0.000000 0.000000 0.000000 0.000000 -21.356169 15.282338 -17.115124 -13.384089 14.595349 13.972532 -19.011236 7.331777 -95.340706 13.674857 -11.822209 14.478317 25.401663 11.427939 26.872004 -0.157435 2.231685 38.204266 0.564845 -3.930194 29.191463 3.265780 -7.340172 -9.779277 6.330135 -17.183876 2.693243 -3.758405 43.889679 2.565390 6.701664 -26.489677 -7.312288 -6.785773 -14.128819 -2.132931 3.347442 42.235893 -2.112195 -4.846524 -25.675751 -6.865132 
0.224278 86.293076 3.257252 0.000000 0.000000 9.101596 5.907910 16.439180 -1.330476 5.546797 10.814187 26.869856 0.000000 0.000000 0.000000 0.000000 0.000000 0.000000 -21.863966 15.401303 -15.118312 -17.574499 16.748474 18.900755 -18.864656 7.670901 -95.881294 18.035328 -13.769912 17.218758 25.834328 14.191441 26.745554 7.660348 2.682247 39.726944 5.589212 0.484642 56.146305 3.514787 -2.805868 -11.454389 5.863970 -14.427303 2.510729 -3.436224 35.303856 1.947360 7.301353 -20.975826 -8.686944 -6.211636 -11.093796 -1.546553 3.333376 33.457817 -1.720749 -5.485066 -19.796663 -8.888926 
0.046769 88.847939 2.054950 0.000000 0.000000 10.202809 5.215626 9.189846 -0.686919 3.746057 7.702278 28.974951 0.000000 0.000000 0.000000 0.000000 0.000000 0.000000 -21.868217 15.459435 -13.779043 -20.291714 18.469519 21.869354 -19.005390 7.140863 -94.569443 21.162878 -15.064411 19.148914 25.676277 15.831903 27.406557 13.500823 3.098711 50.285126 6.760440 1.469693 57.573112 3.826913 0.225744 -12.643886 5.639596 -12.643004 2.273650 -3.092590 28.415277 1.426067 7.274751 -16.074053 -9.948853 -5.755242 -9.016566 -1.223402 3.494469 26.541691 -1.467347 -6.036034 -14.767252 -10.175985 
-0.435486 87.418724 1.082135 0.000000 0.000000 10.531849 3.841867 6.513048 -0.794298 1.948723 6.233219 27.015106 0.000000 0.000000 0.000000 0.000000 0.000000 0.000000 -21.180561 15.462255 -13.347982 -20.554781 19.806419 22.029888 -19.424366 5.475402 -90.905479 22.354044 -15.535657 19.877443 25.173752 16.373701 26.928280 17.574299 3.783844 55.485821 7.155732 0.921734 53.354404 3.971474 1.331289 -13.096381 6.071536 -14.300063 1.982933 -2.601279 29.433491 1.209518 5.767224 -15.284025 -10.607324 -5.749543 -10.275076 -1.554550 3.854104 27.820473 -1.721575 -6.112265 -14.628606 -9.972552 
-1.544055 84.761726 0.519844 0.000000 0.000000 9.970258 0.809744 12.795904 -1.682636 -0.003175 8.003827 19.081684 0.000000 0.000000 0.000000 0.000000 0.000000 0.000000 -18.932457 15.425994 -14.712891 -15.659196 21.013567 16.179485 -19.930250 0.884384 -81.383316 21.879614 -15.349385 19.587681 24.428085 15.688858 23.910391 20.055223 6.064833 46.543182 7.072786 1.000998 53.222363 3.886813 0.783104 -12.915770 7.514542 -20.637901 1.813463 -1.700715 40.943073 0.999288 2.021241 -19.833120 -11.172466 -6.375350 -15.998339 -2.824436 4.751987 39.943779 -2.985936 -5.582128 -20.879522 -7.974720 
-2.908374 80.591873 -0.012311 0.000000 0.000000 9.218784 -3.158640 21.672676 -1.744352 -2.225916 10.666582 9.370759 0.000000 0.000000 0.000000 0.000000 0.000000 0.000000 -15.010886 15.084025 -17.984718 -5.211595 21.584938 3.841211 -18.583124 -6.822198 -65.151688 20.556803 -14.820071 18.776899 23.516808 14.806512 19.865801 23.389835 9.393703 33.766663 6.839590 1.051499 53.221691 3.667199 -0.762345 -12.414529 10.045884 -29.931980 2.327461 0.162642 58.844124 -0.318065 -3.760134 -27.378357 -13.138445 -7.578336 -24.555403 -4.989148 7.498131 58.663254 -6.354152 -4.699767 -30.796419 -4.571248 
-4.337950 73.295975 -0.486755 0.000000 0.000000 8.338256 -8.015827 31.403862 -0.189927 -4.497605 13.688341 -0.807871 0.000000 0.000000 0.000000 0.000000 0.000000 0.000000 -10.425571 14.062024 -22.193583 7.701262 20.534824 -11.445468 -13.499317 -14.578524 -45.059311 18.546816 -13.987362 17.536259 22.598278 13.996294 15.428138 27.967970 13.016367 19.234901 6.518860 1.091791 53.354443 3.380731 -3.159573 -11.657745 13.867139 -40.168594 4.250484 8.520965 79.211807 -8.620966 -11.353264 -35.904877 -17.595707 -9.412842 -34.176804 -7.992552 23.470785 79.584854 -23.072393 -3.544789 -42.096531 -0.101385 
-5.642291 64.593933 -0.875916 0.000000 0.000000 7.389497 -13.667722 40.250389 3.198863 -6.577023 16.544350 -10.269715 0.000000 0.000000 0.000000 0.000000 0.000000 0.000000 -6.166050 12.343580 -26.292622 19.763443 17.986927 -25.980062 -5.579601 -19.270245 -24.351057 16.017225 -12.889588 15.958303 21.825256 13.390529 11.301185 33.359783 15.906852 5.074545 6.173481 1.139450 53.623165 3.104210 -6.263372 -10.708684 19.062033 -49.365288 7.976619 160.831924 80.892052 -161.368896 -20.302347 -43.342125 -24.547947 -11.848058 -43.108116 -11.616771 157.874847 78.448761 -158.233658 -2.106833 -52.595036 4.917517 
-6.630903 56.930954 -1.152217 0.000000 0.000000 6.433332 -19.261173 46.697418 7.520888 -8.179358 18.732548 -17.959200 0.000000 0.000000 0.000000 0.000000 0.000000 0.000000 -3.026114 10.351866 -29.272163 28.487780 15.183243 -36.493847 1.595824 -20.332483 -7.973546 13.133809 -11.568557 14.133608 21.315781 12.998659 8.247788 38.195183 17.460321 -6.291977 5.866095 1.212485 54.031166 2.910098 -9.925083 -9.621855 24.606539 -55.755779 12.604591 169.804199 66.775772 -170.974991 -28.673923 -48.187115 -31.805084 -14.387522 -49.657028 -15.100381 169.854813 63.855186 -170.829956 -0.545397 -60.248920 9.572233 
-7.113294 52.752239 -1.288085 0.000000 0.000000 5.530587 -22.551163 49.664818 10.326311 -8.976059 19.774164 -22.904211 0.000000 0.000000 0.000000 0.000000 0.000000 0.000000 -1.549318 8.767366 -30.223370 32.377132 13.556303 -40.113201 4.636478 -20.083996 -1.060702 10.053935 -10.072543 12.148335 21.155653 12.777289 7.054539 40.707371 17.827864 -12.245325 5.658609 1.330848 54.582344 2.857986 -13.990698 -8.439774 27.261662 -58.016415 14.919539 170.790436 61.302135 -172.284607 -32.611153 -49.972908 -34.911633 -15.664387 -52.241161 -16.764904 171.514038 58.048206 -172.740250 0.306547 -63.136547 12.170312 
